<?xml version="1.0" encoding="utf-8"?>
<!-- Generator: Adobe Illustrator 16.0.0, SVG Export Plug-In . SVG Version: 6.00 Build 0)  -->
<!DOCTYPE svg PUBLIC "-//W3C//DTD SVG 1.1//EN" "http://www.w3.org/Graphics/SVG/1.1/DTD/svg11.dtd">
<svg version="1.1" id="Layer_1" xmlns="http://www.w3.org/2000/svg" xmlns:xlink="http://www.w3.org/1999/xlink" x="0px" y="0px"
	 width="20px" height="20px" viewBox="2.5 0 20 20" enable-background="new 2.5 0 20 20" xml:space="preserve">
<path d="M21.584,4.201H6.023L5.792,1.624C5.754,1.203,5.401,0.88,4.978,0.88h-1.66C2.867,0.88,2.5,1.246,2.5,1.698
	c0,0.451,0.365,0.817,0.817,0.817H4.23C4.73,8.076,3.44-6.296,5.17,12.988c0.067,0.755,0.475,1.573,1.178,2.129
	c-1.267,1.619-0.109,4.002,1.95,4.002c1.71,0,2.917-1.703,2.33-3.318h4.474c-0.585,1.613,0.617,3.318,2.329,3.318
	c1.368,0,2.479-1.111,2.479-2.477s-1.11-2.477-2.479-2.477H8.305c-0.622,0-1.162-0.376-1.396-0.922l13.061-0.768
	c0.355-0.02,0.659-0.271,0.746-0.618l1.66-6.642C22.506,4.701,22.115,4.201,21.584,4.201z M8.298,17.486
	c-0.464,0-0.842-0.379-0.842-0.844s0.378-0.844,0.842-0.844c0.466,0,0.844,0.379,0.844,0.844S8.765,17.486,8.298,17.486z
	 M17.433,17.486c-0.464,0-0.845-0.379-0.845-0.844s0.381-0.844,0.845-0.844c0.466,0,0.843,0.379,0.843,0.844
	S17.898,17.486,17.433,17.486z M19.276,10.881L6.689,11.62L6.17,5.836h14.366L19.276,10.881z"/>
</svg>
