<?xml version="1.0" encoding="utf-8"?>
<!-- Generator: Adobe Illustrator 16.0.0, SVG Export Plug-In . SVG Version: 6.00 Build 0)  -->
<!DOCTYPE svg PUBLIC "-//W3C//DTD SVG 1.1//EN" "http://www.w3.org/Graphics/SVG/1.1/DTD/svg11.dtd">
<svg version="1.1" id="Layer_1" xmlns="http://www.w3.org/2000/svg" xmlns:xlink="http://www.w3.org/1999/xlink" x="0px" y="0px"
	 width="20px" height="20px" viewBox="2.5 0 20 20" enable-background="new 2.5 0 20 20" xml:space="preserve">
<path id="XMLID_844_" d="M18.557,7.881h-0.909V5.155c0-2.838-2.31-5.147-5.146-5.147c-2.838,0-5.147,2.309-5.147,5.147V7.88H6.445
	c-0.502,0-0.909,0.407-0.909,0.908v10.297c0,0.5,0.407,0.907,0.909,0.907h12.111c0.501,0,0.907-0.407,0.907-0.907V8.789
	C19.465,8.287,19.058,7.881,18.557,7.881z M9.17,5.155c0-1.836,1.494-3.331,3.331-3.331c1.836,0,3.329,1.495,3.329,3.331V7.88H9.17
	V5.155z M17.647,18.176H7.354V9.697h0.908h8.478h0.908V18.176z"/>
</svg>
