<?xml version="1.0" encoding="utf-8"?>
<!-- Generator: Adobe Illustrator 16.0.0, SVG Export Plug-In . SVG Version: 6.00 Build 0)  -->
<!DOCTYPE svg PUBLIC "-//W3C//DTD SVG 1.1//EN" "http://www.w3.org/Graphics/SVG/1.1/DTD/svg11.dtd">
<svg version="1.1" id="Layer_1" focusable="false" xmlns="http://www.w3.org/2000/svg" xmlns:xlink="http://www.w3.org/1999/xlink"
	 x="0px" y="0px" width="20px" height="20px" viewBox="2.5 0 20 20" enable-background="new 2.5 0 20 20" xml:space="preserve">
<path d="M22.24,17.305l-3.896-3.896c-0.175-0.177-0.415-0.274-0.665-0.274h-0.638c1.079-1.379,1.721-3.115,1.721-5.002
	C18.761,3.64,15.122,0,10.63,0S2.5,3.64,2.5,8.131s3.639,8.13,8.13,8.13c1.889,0,3.623-0.642,5.003-1.721v0.639
	c0,0.25,0.098,0.489,0.274,0.664l3.897,3.896c0.367,0.368,0.962,0.368,1.324,0l1.105-1.105
	C22.604,18.268,22.604,17.673,22.24,17.305z M10.63,13.134c-2.763,0-5.003-2.236-5.003-5.003c0-2.764,2.236-5.004,5.003-5.004
	c2.763,0,5.003,2.236,5.003,5.004C15.634,10.895,13.398,13.134,10.63,13.134z"/>
</svg>
