<?xml version="1.0" encoding="utf-8"?>
<!-- Generator: Adobe Illustrator 16.0.0, SVG Export Plug-In . SVG Version: 6.00 Build 0)  -->
<!DOCTYPE svg PUBLIC "-//W3C//DTD SVG 1.1//EN" "http://www.w3.org/Graphics/SVG/1.1/DTD/svg11.dtd">
<svg version="1.1" id="Layer_1" focusable="false" xmlns="http://www.w3.org/2000/svg" xmlns:xlink="http://www.w3.org/1999/xlink"
	 x="0px" y="0px" width="50px" height="50px" viewBox="0 0 50 50" enable-background="new 0 0 50 50" xml:space="preserve">
<path fill="#163561" d="M1.785,11.093h46.43c0.984,0,1.785-0.8,1.785-1.787v-2.25c0-0.986-0.801-1.787-1.785-1.787H1.785
	C0.801,5.269,0,6.068,0,7.056v2.25C0,10.293,0.801,11.093,1.785,11.093z M1.785,44.731h46.43c0.984,0,1.785-0.8,1.785-1.786v-2.251
	c0-0.986-0.801-1.786-1.785-1.786H1.785c-0.984,0-1.785,0.8-1.785,1.786v2.251C0,43.932,0.801,44.731,1.785,44.731z M1.785,27.911
	h46.43c0.984,0,1.785-0.8,1.785-1.786v-2.25c0-0.986-0.801-1.786-1.785-1.786H1.785C0.801,22.088,0,22.887,0,23.875v2.25
	C0,27.113,0.801,27.911,1.785,27.911z"/>
</svg>
