<?xml version="1.0" encoding="utf-8"?>
<!-- Generator: Adobe Illustrator 16.0.0, SVG Export Plug-In . SVG Version: 6.00 Build 0)  -->
<!DOCTYPE svg PUBLIC "-//W3C//DTD SVG 1.1//EN" "http://www.w3.org/Graphics/SVG/1.1/DTD/svg11.dtd">
<svg version="1.1" id="Layer_1" focusable="false" xmlns="http://www.w3.org/2000/svg" xmlns:xlink="http://www.w3.org/1999/xlink"
	 x="0px" y="0px" width="20px" height="20px" viewBox="287.639 410.945 20 20" enable-background="new 287.639 410.945 20 20"
	 xml:space="preserve">
<path fill="#58585B" d="M305.765,413.445h-16.25c-1.036,0-1.875,0.84-1.875,1.875v11.25c0,1.037,0.839,1.875,1.875,1.875h16.25
	c1.035,0,1.874-0.838,1.874-1.875v-11.25C307.639,414.285,306.802,413.445,305.765,413.445z M305.765,415.32v1.594
	c-0.876,0.713-2.272,1.822-5.258,4.16c-0.658,0.517-1.961,1.761-2.868,1.746c-0.907,0.016-2.21-1.229-2.868-1.746
	c-2.985-2.337-4.381-3.446-5.257-4.16v-1.594H305.765L305.765,415.32z M289.515,426.57v-7.25c0.895,0.713,2.165,1.713,4.099,3.229
	c0.854,0.672,2.349,2.156,4.026,2.146c1.668,0.01,3.145-1.453,4.026-2.146c1.935-1.514,3.203-2.514,4.1-3.229v7.25H289.515
	L289.515,426.57z"/>
</svg>
