<?xml version="1.0" encoding="utf-8"?>
<!-- Generator: Adobe Illustrator 16.0.0, SVG Export Plug-In . SVG Version: 6.00 Build 0)  -->
<!DOCTYPE svg PUBLIC "-//W3C//DTD SVG 1.1//EN" "http://www.w3.org/Graphics/SVG/1.1/DTD/svg11.dtd">
<svg version="1.1" id="Layer_1" focusable="false" xmlns="http://www.w3.org/2000/svg" xmlns:xlink="http://www.w3.org/1999/xlink"
	 x="0px" y="0px" width="20px" height="20px" viewBox="287.639 410.945 20 20" enable-background="new 287.639 410.945 20 20"
	 xml:space="preserve">
<path fill="#58585B" d="M306.389,417.195v-3.232c0-0.332-0.132-0.65-0.366-0.884l-1.768-1.768c-0.234-0.234-0.553-0.366-0.884-0.366
	h-9.482c-0.69,0-1.25,0.56-1.25,1.25v17.5c0,0.689,0.56,1.25,1.25,1.25h12.5c0.688,0,1.249-0.561,1.249-1.25v-11.25
	C307.639,417.754,307.08,417.195,306.389,417.195z M298.89,427.82c0,0.346-0.28,0.625-0.626,0.625h-1.25
	c-0.346,0-0.625-0.279-0.625-0.625v-1.25c0-0.346,0.279-0.625,0.625-0.625h1.25c0.346,0,0.626,0.279,0.626,0.625V427.82z
	 M298.89,422.82c0,0.346-0.28,0.625-0.626,0.625h-1.25c-0.346,0-0.625-0.279-0.625-0.625v-1.25c0-0.345,0.279-0.625,0.625-0.625
	h1.25c0.346,0,0.626,0.28,0.626,0.625V422.82z M303.889,427.82c0,0.346-0.279,0.625-0.625,0.625h-1.25
	c-0.345,0-0.625-0.279-0.625-0.625v-1.25c0-0.346,0.28-0.625,0.625-0.625h1.25c0.346,0,0.625,0.279,0.625,0.625V427.82z
	 M303.889,422.82c0,0.346-0.279,0.625-0.625,0.625h-1.25c-0.345,0-0.625-0.279-0.625-0.625v-1.25c0-0.345,0.28-0.625,0.625-0.625
	h1.25c0.346,0,0.625,0.28,0.625,0.625V422.82z M303.889,418.445h-8.75v-5h6.25v1.875c0,0.345,0.279,0.625,0.625,0.625h1.875V418.445
	L303.889,418.445z M290.14,415.945h-1.25c-0.69,0-1.25,0.56-1.25,1.25v12.5c0,0.689,0.56,1.25,1.25,1.25h1.25
	c0.689,0,1.25-0.561,1.25-1.25v-12.5C291.39,416.504,290.83,415.945,290.14,415.945z"/>
</svg>
