<?xml version="1.0" encoding="utf-8"?>
<!-- Generator: Adobe Illustrator 16.0.0, SVG Export Plug-In . SVG Version: 6.00 Build 0)  -->
<!DOCTYPE svg PUBLIC "-//W3C//DTD SVG 1.1//EN" "http://www.w3.org/Graphics/SVG/1.1/DTD/svg11.dtd">
<svg version="1.1" id="Layer_1" focusable="false" xmlns="http://www.w3.org/2000/svg" xmlns:xlink="http://www.w3.org/1999/xlink"
	 x="0px" y="0px" width="20px" height="20px" viewBox="0 0 20 20" enable-background="new 0 0 20 20" xml:space="preserve">
<path fill="#58585B" d="M19.43,14.132l-4.375-1.875c-0.384-0.162-0.83-0.053-1.094,0.27l-1.938,2.367
	c-3.041-1.434-5.488-3.881-6.922-6.92l2.367-1.938c0.324-0.264,0.434-0.71,0.27-1.094L5.863,0.567
	C5.682,0.151,5.231-0.077,4.789,0.024L0.726,0.962C0.302,1.06,0,1.439,0,1.876c0,10.02,8.12,18.125,18.125,18.125
	c0.437,0,0.815-0.301,0.914-0.729l0.938-4.063C20.078,14.765,19.847,14.314,19.43,14.132L19.43,14.132z"/>
</svg>
