<?xml version="1.0" encoding="utf-8"?>
<!-- Generator: Adobe Illustrator 16.0.0, SVG Export Plug-In . SVG Version: 6.00 Build 0)  -->
<!DOCTYPE svg PUBLIC "-//W3C//DTD SVG 1.1//EN" "http://www.w3.org/Graphics/SVG/1.1/DTD/svg11.dtd">
<svg version="1.1" id="Capa_1" xmlns="http://www.w3.org/2000/svg" xmlns:xlink="http://www.w3.org/1999/xlink" x="0px" y="0px"
	 width="30px" height="30px" viewBox="282.64 405.945 30 30" enable-background="new 282.64 405.945 30 30" xml:space="preserve">
<g>
	<g>
		<path fill="#FFFFFF" d="M298.299,420.942l13.596-13.595c0.18-0.181,0.18-0.475,0-0.655c-0.181-0.182-0.476-0.182-0.658,0
			l-13.593,13.594l-13.596-13.594c-0.183-0.179-0.478-0.173-0.655,0.011c-0.174,0.18-0.174,0.464,0,0.644l13.594,13.595
			l-13.594,13.594c-0.185,0.179-0.19,0.473-0.012,0.657c0.178,0.185,0.472,0.188,0.656,0.011c0.004-0.003,0.008-0.007,0.011-0.011
			l13.596-13.596l13.593,13.596c0.185,0.177,0.479,0.173,0.658-0.012c0.173-0.181,0.173-0.465,0-0.646L298.299,420.942z"/>
	</g>
</g>
</svg>
