<?xml version="1.0" encoding="utf-8"?>
<!-- Generator: Adobe Illustrator 16.0.0, SVG Export Plug-In . SVG Version: 6.00 Build 0)  -->
<!DOCTYPE svg PUBLIC "-//W3C//DTD SVG 1.1//EN" "http://www.w3.org/Graphics/SVG/1.1/DTD/svg11.dtd">
<svg version="1.1" id="Capa_1" xmlns="http://www.w3.org/2000/svg" xmlns:xlink="http://www.w3.org/1999/xlink" x="0px" y="0px"
	 width="50px" height="50px" viewBox="0 0 50 50" enable-background="new 0 0 50 50" xml:space="preserve">
<g>
	<path fill="#404041" d="M25.352,13.027c-0.198-0.199-0.518-0.199-0.715-0.001c-0.001,0.001-0.001,0.001-0.001,0.001l-9.092,9.091
		c-0.194,0.201-0.188,0.52,0.012,0.715c0.196,0.189,0.506,0.189,0.702,0l8.231-8.231v22.018c0,0.277,0.226,0.506,0.506,0.506
		c0.278,0,0.505-0.227,0.505-0.506V14.603l8.233,8.23c0.189,0.199,0.512,0.205,0.715,0.012c0.198-0.192,0.206-0.512,0.012-0.715
		c-0.006-0.004-0.01-0.01-0.012-0.014L25.352,13.027z"/>
	<path fill="#404041" d="M34.085,22.979c-0.132,0-0.263-0.052-0.356-0.147l-8.736-8.735l-8.735,8.735
		c-0.201,0.194-0.52,0.189-0.714-0.014c-0.189-0.194-0.189-0.506,0-0.701l9.092-9.089c0.198-0.197,0.517-0.197,0.715,0l9.094,9.091
		c0.193,0.198,0.193,0.518-0.003,0.715C34.348,22.927,34.221,22.979,34.085,22.979z"/>
	<path fill="#404041" d="M24.992,37.123c-0.279,0-0.505-0.226-0.505-0.504V13.381c0-0.279,0.225-0.505,0.505-0.505
		c0.28,0,0.505,0.225,0.505,0.505v23.238C25.498,36.897,25.272,37.123,24.992,37.123z"/>
</g>
<circle fill="none" stroke="#EEEEEE" stroke-miterlimit="10" cx="25" cy="25" r="24"/>
</svg>
