<?xml version="1.0" encoding="utf-8"?>
<!-- Generator: Adobe Illustrator 16.0.0, SVG Export Plug-In . SVG Version: 6.00 Build 0)  -->
<!DOCTYPE svg PUBLIC "-//W3C//DTD SVG 1.1//EN" "http://www.w3.org/Graphics/SVG/1.1/DTD/svg11.dtd">
<svg version="1.1" id="Capa_1" xmlns="http://www.w3.org/2000/svg" xmlns:xlink="http://www.w3.org/1999/xlink" x="0px" y="0px"
	 width="50px" height="50px" viewBox="0 0 50 50" enable-background="new 0 0 50 50" xml:space="preserve">
<g>
	<path fill="#404041" d="M7.895,24.499c-0.284,0.282-0.284,0.739-0.001,1.021c0.001,0.002,0.001,0.002,0.001,0.002l12.989,12.989
		c0.287,0.277,0.743,0.27,1.021-0.018c0.271-0.28,0.271-0.724,0-1.004L10.146,25.73H41.6c0.396,0,0.723-0.322,0.723-0.723
		c0-0.398-0.322-0.721-0.723-0.721H10.147l11.758-11.762c0.285-0.272,0.293-0.73,0.017-1.021c-0.275-0.284-0.732-0.294-1.021-0.017
		c-0.006,0.007-0.014,0.013-0.019,0.017L7.895,24.499z"/>
	<path fill="#404041" d="M22.114,12.022c0,0.189-0.075,0.375-0.211,0.51L9.424,25.01l12.479,12.479
		c0.277,0.286,0.27,0.743-0.019,1.021c-0.278,0.271-0.723,0.271-1.002,0L7.895,25.521c-0.281-0.284-0.281-0.738,0-1.021
		l12.989-12.99c0.283-0.277,0.739-0.277,1.021,0.004C22.04,11.647,22.114,11.829,22.114,12.022z"/>
	<path fill="#404041" d="M42.318,25.01c0,0.399-0.321,0.723-0.721,0.723H8.402c-0.398,0-0.722-0.322-0.722-0.723
		c0-0.4,0.322-0.722,0.722-0.722H41.6C41.997,24.289,42.318,24.61,42.318,25.01z"/>
</g>
</svg>
