<?xml version="1.0" encoding="utf-8"?>
<!-- Generator: Adobe Illustrator 16.0.0, SVG Export Plug-In . SVG Version: 6.00 Build 0)  -->
<!DOCTYPE svg PUBLIC "-//W3C//DTD SVG 1.1//EN" "http://www.w3.org/Graphics/SVG/1.1/DTD/svg11.dtd">
<svg version="1.1" id="Capa_1" xmlns="http://www.w3.org/2000/svg" xmlns:xlink="http://www.w3.org/1999/xlink" x="0px" y="0px"
	 width="50px" height="50px" viewBox="0 0 50 50" enable-background="new 0 0 50 50" xml:space="preserve">
<g>
	<g>
		<g>
			<path fill="#404041" d="M49.589,17.981L44.017,3.494c-1.057-2.739-4.133-4.104-6.871-3.047c-0.039,0.015-0.08,0.03-0.119,0.047
				L9.183,12.036c-2.652,1.087-3.955,4.089-2.939,6.769l0.766,2.043H5.253c-2.865,0.003-5.188,2.325-5.189,5.19v18.684
				c0.002,2.865,2.324,5.188,5.189,5.19h35.293c2.863-0.003,5.188-2.325,5.188-5.19V26.037c-0.002-0.281-0.025-0.563-0.074-0.84
				l0.967-0.391C49.298,23.711,50.612,20.684,49.589,17.981z M5.251,22.51h35.293c1.863,0.005,3.402,1.461,3.508,3.322H1.743
				C1.851,23.97,3.388,22.515,5.251,22.51z M13.599,17.507l5.551-2.776l1.141,2.854l-5.551,2.775L13.599,17.507z M44.073,44.724
				c-0.002,1.948-1.58,3.526-3.529,3.528H5.251c-1.947-0.002-3.525-1.58-3.527-3.528V34.136h42.35V44.724z M44.073,32.475H1.724
				v-4.981h42.35V32.475z M46.001,23.274l-0.867,0.351c-0.896-1.705-2.664-2.773-4.59-2.776H17.478l4.24-2.12
				c0.387-0.192,0.561-0.649,0.398-1.052l-1.76-4.4c-0.17-0.427-0.654-0.634-1.08-0.464c-0.021,0.01-0.043,0.019-0.063,0.029
				l-7.041,3.522c-0.387,0.192-0.561,0.649-0.4,1.051l1.375,3.433H8.782L7.8,18.225c-0.697-1.841,0.197-3.902,2.02-4.649
				L37.661,2.034c1.861-0.772,3.996,0.11,4.771,1.973c0.012,0.029,0.023,0.058,0.033,0.087l5.572,14.487
				C48.741,20.44,47.839,22.52,46.001,23.274z"/>
			<path fill="#404041" d="M29.933,45.917c1.549,0.898,3.459,0.898,5.006,0c2.379,1.383,5.43,0.574,6.811-1.805
				c1.385-2.381,0.574-5.43-1.805-6.813c-0.764-0.443-1.631-0.676-2.514-0.674c-0.877,0-1.736,0.232-2.492,0.674
				c-2.379-1.382-5.428-0.574-6.811,1.807C26.745,41.485,27.554,44.535,29.933,45.917z M36.327,38.49
				c0.354-0.13,0.727-0.199,1.104-0.202c1.834,0,3.32,1.486,3.32,3.32s-1.486,3.321-3.32,3.321c-0.377-0.004-0.75-0.072-1.104-0.202
				C37.798,42.909,37.798,40.31,36.327,38.49z M34.938,39.436c1.107,1.237,1.107,3.109,0,4.349
				C33.831,42.545,33.831,40.673,34.938,39.436z M32.448,38.288c0.377,0.003,0.75,0.072,1.102,0.202
				c-1.469,1.818-1.469,4.419,0,6.237c-0.352,0.131-0.725,0.198-1.102,0.202c-1.836,0-3.322-1.486-3.322-3.32
				C29.126,39.774,30.612,38.288,32.448,38.288z"/>
			
				<rect x="38.507" y="11.922" transform="matrix(-0.4048 -0.9144 0.9144 -0.4048 40.3969 58.8068)" fill="#404041" width="1.66" height="8.668"/>
			
				<rect x="29.577" y="12.686" transform="matrix(0.908 -0.419 0.419 0.908 -2.362 16.2759)" fill="#404041" width="12.603" height="1.66"/>
		</g>
	</g>
</g>
</svg>
