<?xml version="1.0" encoding="utf-8"?>
<!-- Generator: Adobe Illustrator 16.0.0, SVG Export Plug-In . SVG Version: 6.00 Build 0)  -->
<!DOCTYPE svg PUBLIC "-//W3C//DTD SVG 1.1//EN" "http://www.w3.org/Graphics/SVG/1.1/DTD/svg11.dtd">
<svg version="1.1" id="Capa_1" xmlns="http://www.w3.org/2000/svg" xmlns:xlink="http://www.w3.org/1999/xlink" x="0px" y="0px"
	 width="50px" height="50px" viewBox="0 0 50 50" enable-background="new 0 0 50 50" xml:space="preserve">
<g>
	<g>
		<g>
			<path fill="#404041" d="M11.656,34.174c-1.383,0-2.502,1.119-2.502,2.502c0,1.381,1.119,2.502,2.502,2.502
				c1.381,0,2.5-1.121,2.5-2.502S13.037,34.176,11.656,34.174z M11.656,37.51c-0.461,0-0.834-0.373-0.834-0.834
				s0.373-0.834,0.834-0.834c0.459,0,0.834,0.373,0.834,0.834S12.115,37.51,11.656,37.51z"/>
			<path fill="#404041" d="M38.344,34.174c-1.381,0-2.5,1.119-2.5,2.502c0,1.381,1.119,2.502,2.5,2.502
				c1.383,0,2.504-1.121,2.504-2.502C40.846,35.295,39.727,34.176,38.344,34.174z M38.344,37.51c-0.459,0-0.832-0.373-0.832-0.834
				s0.373-0.834,0.832-0.834c0.461,0,0.834,0.373,0.834,0.834S38.805,37.51,38.344,37.51z"/>
			<path fill="#404041" d="M49.385,22.301l-5.744-6.47c-0.479-0.536-1.16-0.842-1.875-0.84h-7.592V9.988
				c0-1.381-1.119-2.5-2.502-2.502H2.482C1.102,7.488-0.02,8.606-0.02,9.988v21.684c0,0.221,0.088,0.434,0.244,0.59
				s0.369,0.244,0.59,0.244h0.834v2.502c0,1.381,1.121,2.5,2.5,2.502h1.734c0.41,2.871,2.871,5.004,5.771,5.004
				c2.902,0,5.361-2.133,5.771-5.004h15.146c0.41,2.871,2.869,5.004,5.771,5.004c2.9,0,5.359-2.133,5.771-5.004h3.402
				c1.381-0.002,2.5-1.121,2.502-2.502V23.965C50.02,23.351,49.795,22.759,49.385,22.301z M1.648,30.838V9.988
				c0-0.46,0.373-0.834,0.832-0.834h29.191c0.461,0,0.834,0.374,0.834,0.834v20.85H1.648z M5.885,35.842H4.15
				c-0.461,0-0.834-0.373-0.834-0.834v-2.502h4.262C6.662,33.402,6.066,34.572,5.885,35.842z M11.656,40.846
				c-2.303,0-4.17-1.867-4.17-4.17s1.867-4.17,4.17-4.17s4.17,1.867,4.17,4.17C15.822,38.979,13.957,40.844,11.656,40.846z
				 M19.996,35.842h-2.568c-0.184-1.27-0.777-2.439-1.695-3.336h4.264V35.842L19.996,35.842z M27.502,35.842h-5.838v-3.336h5.838
				V35.842z M32.572,35.842h-3.4v-3.336h5.094C33.352,33.402,32.756,34.572,32.572,35.842z M38.344,40.846
				c-2.303,0-4.17-1.867-4.17-4.17s1.867-4.17,4.17-4.17c2.305,0,4.172,1.867,4.172,4.17C42.512,38.979,40.646,40.844,38.344,40.846
				z M48.354,35.008c0,0.461-0.373,0.834-0.834,0.834h-3.404c-0.416-2.869-2.871-4.998-5.77-5.004h-4.17V16.66h3.336V25
				c0.002,1.381,1.121,2.5,2.502,2.502h8.34V35.008L48.354,35.008z M48.354,25.834h-8.342c-0.459-0.002-0.832-0.375-0.834-0.834
				v-8.34h2.588c0.238-0.001,0.467,0.1,0.625,0.278l5.748,6.474c0.139,0.151,0.213,0.35,0.215,0.555V25.834L48.354,25.834z"/>
		</g>
	</g>
</g>
</svg>
