<?xml version="1.0" encoding="utf-8"?>
<!-- Generator: Adobe Illustrator 16.0.0, SVG Export Plug-In . SVG Version: 6.00 Build 0)  -->
<!DOCTYPE svg PUBLIC "-//W3C//DTD SVG 1.1//EN" "http://www.w3.org/Graphics/SVG/1.1/DTD/svg11.dtd">
<svg version="1.1" id="Capa_1" xmlns="http://www.w3.org/2000/svg" xmlns:xlink="http://www.w3.org/1999/xlink" x="0px" y="0px"
	 width="50px" height="50px" viewBox="0 0 50 50" enable-background="new 0 0 50 50" xml:space="preserve">
<g>
	<g>
		<g>
			<path fill="#404041" d="M40.312,15.068L26.116,7.203c-0.723-0.4-1.584-0.4-2.307,0l0,0L9.612,15.068
				c-0.756,0.419-1.227,1.218-1.227,2.082v15.633c0,0.863,0.471,1.663,1.227,2.081l14.197,7.865c0.359,0.2,0.756,0.301,1.152,0.301
				s0.793-0.101,1.154-0.301l14.195-7.865c0.758-0.419,1.227-1.216,1.227-2.081V17.15C41.538,16.286,41.069,15.487,40.312,15.068z
				 M24.753,8.909c0.133-0.072,0.287-0.072,0.418,0l5.668,3.141l-13.672,7.575l-5.801-3.298L24.753,8.909z M23.987,40.6l-13.43-7.44
				c-0.137-0.074-0.223-0.221-0.223-0.376V17.985l6.336,3.602c0.004,0.001,0.004,0.002,0.006,0.002l7.311,4.157V40.6L23.987,40.6z
				 M19.153,20.753l13.697-7.589l5.893,3.264L24.97,24.059L19.153,20.753z M39.587,32.782c0,0.155-0.086,0.302-0.221,0.377
				l-13.43,7.439V25.751l13.65-7.564V32.782L39.587,32.782z"/>
		</g>
	</g>
	<g>
		<g>
			<path fill="#404041" d="M18.118,24.817l-5.166-2.845c-0.303-0.167-0.67-0.162-0.967,0.016c-0.297,0.175-0.48,0.493-0.48,0.839
				v4.123c0,0.355,0.195,0.684,0.506,0.854l5.168,2.846c0.146,0.081,0.309,0.121,0.471,0.121c0.172,0,0.342-0.046,0.496-0.136
				c0.297-0.175,0.479-0.494,0.479-0.84v-4.121C18.624,25.316,18.431,24.99,18.118,24.817z M16.673,28.144l-3.217-1.771v-1.897
				l3.217,1.772V28.144z"/>
		</g>
	</g>
	<g>
		<g>
			<path fill="#404041" d="M22.187,35.127l-2.584-1.422c-0.473-0.262-1.064-0.088-1.324,0.383c-0.26,0.472-0.088,1.063,0.383,1.324
				l2.582,1.424c0.15,0.081,0.313,0.121,0.469,0.121c0.346,0,0.678-0.184,0.855-0.505C22.829,35.979,22.657,35.387,22.187,35.127z"
				/>
		</g>
	</g>
	<g>
		<g>
			<path fill="#404041" d="M45.368,10.585l1.799-1.799c0.279-0.279,0.363-0.698,0.213-1.063c-0.15-0.364-0.508-0.602-0.9-0.602
				h-4.842c-0.539,0-0.977,0.437-0.977,0.975v4.843c0,0.395,0.236,0.75,0.602,0.901c0.121,0.049,0.248,0.074,0.371,0.074
				c0.256,0,0.506-0.1,0.691-0.286l1.643-1.644c6.178,9.031,5.072,21.445-2.734,29.251c-6.713,6.715-16.686,8.622-25.4,4.858
				c-0.496-0.212-1.068,0.015-1.283,0.509c-0.213,0.494,0.016,1.068,0.51,1.282c3.143,1.355,6.496,2.045,9.883,2.045
				c1.504,0,3.016-0.136,4.518-0.411c5-0.91,9.547-3.298,13.152-6.904c4.27-4.268,6.846-9.932,7.254-15.946
				C50.255,20.933,48.661,15.25,45.368,10.585z M42.612,10.585V9.073h1.514L42.612,10.585z"/>
		</g>
	</g>
	<g>
		<g>
			<path fill="#404041" d="M13.026,44.647l-0.039-0.022c-0.459-0.28-1.059-0.135-1.34,0.326c-0.279,0.46-0.133,1.06,0.326,1.339
				l0.039,0.022c0.158,0.099,0.332,0.144,0.506,0.144c0.33,0,0.65-0.166,0.834-0.467C13.632,45.527,13.485,44.928,13.026,44.647z"/>
		</g>
	</g>
	<g>
		<g>
			<path fill="#404041" d="M38.083,3.724l-0.049-0.03c-0.459-0.281-1.059-0.139-1.34,0.319c-0.283,0.459-0.141,1.06,0.318,1.342
				l0.049,0.03c0.158,0.098,0.336,0.145,0.51,0.145c0.326,0,0.646-0.164,0.83-0.464C38.687,4.607,38.542,4.007,38.083,3.724z"/>
		</g>
	</g>
	<g>
		<g>
			<path fill="#404041" d="M34.81,2.021c-4.533-1.944-9.504-2.5-14.375-1.605c-4.986,0.916-9.525,3.302-13.123,6.899
				c-4.27,4.269-6.844,9.933-7.254,15.947c-0.391,5.736,1.205,11.421,4.498,16.083l-1.801,1.799
				c-0.277,0.279-0.361,0.698-0.211,1.063c0.152,0.363,0.506,0.601,0.902,0.601h4.842c0.539,0,0.977-0.437,0.977-0.975v-4.842
				c0-0.396-0.238-0.751-0.604-0.902c-0.363-0.149-0.783-0.065-1.063,0.212l-1.643,1.644C-0.222,28.914,0.884,16.5,8.69,8.695
				c6.697-6.697,16.646-8.613,25.35-4.881c0.496,0.212,1.07-0.017,1.281-0.512C35.534,2.807,35.306,2.234,34.81,2.021z
				 M7.313,39.347v1.516H5.8L7.313,39.347z"/>
		</g>
	</g>
</g>
</svg>
