<?xml version="1.0" encoding="utf-8"?>
<!-- Generator: Adobe Illustrator 16.0.0, SVG Export Plug-In . SVG Version: 6.00 Build 0)  -->
<!DOCTYPE svg PUBLIC "-//W3C//DTD SVG 1.1//EN" "http://www.w3.org/Graphics/SVG/1.1/DTD/svg11.dtd">
<svg version="1.1" id="Capa_1" xmlns="http://www.w3.org/2000/svg" xmlns:xlink="http://www.w3.org/1999/xlink" x="0px" y="0px"
	 width="50px" height="50px" viewBox="0 0 50 50" enable-background="new 0 0 50 50" xml:space="preserve">
<g>
	<g>
		<path fill="#404041" d="M45.396,11.854h-5.9c0.912-1.214,1.453-2.72,1.453-4.351c0-3.997-3.252-7.25-7.25-7.25
			c-2.408,0-4.182,0.863-5.588,2.716C26.938,4.519,26.078,6.683,25,9.416c-1.076-2.734-1.936-4.897-3.109-6.446
			c-1.406-1.853-3.182-2.716-5.59-2.716c-3.996,0-7.248,3.253-7.248,7.25c0,1.631,0.541,3.137,1.451,4.351H4.605
			c-2.398,0-4.352,1.95-4.352,4.35v2.9c0,1.891,1.215,3.502,2.9,4.101v22.191c0,2.398,1.951,4.35,4.35,4.35h34.992
			c2.398,0,4.35-1.951,4.35-4.35V23.205c1.688-0.599,2.9-2.21,2.9-4.101v-2.9C49.746,13.805,47.795,11.854,45.396,11.854z
			 M27.66,10.572c2.223-5.636,3.066-7.418,6.039-7.418c2.398,0,4.352,1.95,4.352,4.35s-1.953,4.35-4.352,4.35h-6.545
			C27.332,11.408,27.5,10.979,27.66,10.572z M16.301,3.154c2.973,0,3.816,1.781,6.039,7.418c0.158,0.405,0.328,0.836,0.506,1.28
			h-6.545c-2.398,0-4.352-1.95-4.352-4.35C11.949,5.104,13.902,3.154,16.301,3.154z M19.199,46.846H7.504
			c-0.801,0-1.449-0.65-1.449-1.449V23.454h13.145V46.846z M19.199,20.553H4.604c-0.799,0-1.449-0.648-1.449-1.448v-2.9
			c0-0.799,0.65-1.45,1.449-1.45h14.596V20.553z M27.9,46.846H22.1V14.753c0.305,0,4.133,0,5.801,0V46.846z M43.945,45.395
			c0,0.801-0.648,1.451-1.449,1.451H30.801V23.452h13.145V45.395z M46.846,19.104c0,0.8-0.65,1.448-1.449,1.448H30.801v-5.8h14.596
			c0.799,0,1.449,0.651,1.449,1.45V19.104z"/>
	</g>
</g>
</svg>
