<?xml version="1.0" encoding="utf-8"?>
<!-- Generator: Adobe Illustrator 16.0.0, SVG Export Plug-In . SVG Version: 6.00 Build 0)  -->
<!DOCTYPE svg PUBLIC "-//W3C//DTD SVG 1.1//EN" "http://www.w3.org/Graphics/SVG/1.1/DTD/svg11.dtd">
<svg version="1.1" id="Capa_1" xmlns="http://www.w3.org/2000/svg" xmlns:xlink="http://www.w3.org/1999/xlink" x="0px" y="0px"
	 width="50px" height="50px" viewBox="0 0 50 50" enable-background="new 0 0 50 50" xml:space="preserve">
<g>
	<g>
		<path fill="#404041" d="M32.843,30.875c-0.306-0.092-0.622-0.139-0.938-0.135c-1.141,0-2.197,0.597-2.785,1.575l-12.07-6.169
			c0.261-0.706,0.265-1.481,0.012-2.189l12.136-6.068c1.009,1.526,3.065,1.942,4.592,0.933c1.523-1.009,1.941-3.064,0.932-4.588
			c-1.01-1.525-3.066-1.943-4.591-0.933c-1.267,0.838-1.798,2.429-1.296,3.86l-12.139,6.068c-0.998-1.496-3.02-1.899-4.517-0.9
			c-1.496,0.998-1.899,3.021-0.901,4.517c1,1.497,3.022,1.9,4.518,0.9c0.348-0.232,0.646-0.529,0.883-0.875l12.107,6.187
			c-0.519,1.725,0.458,3.54,2.181,4.058c1.726,0.516,3.541-0.461,4.055-2.183C35.541,33.207,34.565,31.391,32.843,30.875z
			 M31.904,13.638c1.35,0,2.441,1.094,2.441,2.441c0,1.35-1.094,2.443-2.441,2.443c-1.352,0-2.441-1.094-2.441-2.443
			C29.461,14.732,30.555,13.639,31.904,13.638z M13.989,27.479c-1.349,0-2.442-1.094-2.442-2.443c0-1.349,1.094-2.442,2.442-2.442
			s2.442,1.094,2.442,2.442C16.432,26.385,15.339,27.479,13.989,27.479z M31.904,36.437c-1.352,0-2.441-1.094-2.441-2.442
			c0-1.35,1.094-2.442,2.441-2.442c1.35,0,2.441,1.095,2.441,2.442C34.344,35.342,33.253,36.435,31.904,36.437z"/>
	</g>
</g>
<circle fill="none" stroke="#EEEEEE" stroke-miterlimit="10" cx="25" cy="25" r="24"/>
</svg>
